Coordinates
version=1
nRows=17
nColumns=40
inDegrees=yes

Units are S.I. units (second, meters, Newtons, ...)
If the header above contains a line with 'inDegrees', this indicates whether rotational values are in degrees (yes) or radians (no).

endheader
time	pelvis_tilt	pelvis_list	pelvis_rotation	pelvis_tx	pelvis_ty	pelvis_tz	hip_flexion_r	hip_adduction_r	hip_rotation_r	knee_angle_r	knee_angle_r_beta	ankle_angle_r	subtalar_angle_r	mtp_angle_r	hip_flexion_l	hip_adduction_l	hip_rotation_l	knee_angle_l	knee_angle_l_beta	ankle_angle_l	subtalar_angle_l	mtp_angle_l	lumbar_extension	lumbar_bending	lumbar_rotation	arm_flex_r	arm_add_r	arm_rot_r	elbow_flex_r	pro_sup_r	wrist_flex_r	wrist_dev_r	arm_flex_l	arm_add_l	arm_rot_l	elbow_flex_l	pro_sup_l	wrist_flex_l	wrist_dev_l
      6.15500000	    -41.35950503	      0.78460019	     -1.08083359	     -0.41545511	      0.62292562	     -0.91549814	    104.38812702	    -28.65218262	      1.71771644	     97.42392015	      1.70036818	     30.55983805	      0.00000000	      0.00000000	    104.28127357	    -29.41491007	      2.14038692	     97.65185096	      1.70434632	     32.36764091	      0.00000000	      0.00000000	    -19.82045901	      3.21421949	      7.13855104	    -28.55955500	    -58.68997656	     42.56843173	    100.46946470	     87.81691925	      0.00000000	      0.00000000	      8.16547114	    -60.20848757	     74.26445065	     98.91893176	     87.90185482	      0.00000000	      0.00000000
      6.16000000	    -41.40106893	      0.79443615	     -1.10673757	     -0.41556087	      0.62291025	     -0.91547546	    104.42882722	    -28.61255380	      1.71470683	     97.39571018	      1.69987582	     30.58203216	      0.00000000	      0.00000000	    104.32544917	    -29.43801754	      2.14025898	     97.65571245	      1.70441372	     32.35851543	      0.00000000	      0.00000000	    -19.77965190	      3.21123579	      7.88389991	    -30.50271152	    -58.17329624	     40.58787377	    100.55221790	     87.84326312	      0.00000000	      0.00000000	     10.50481639	    -59.97329550	     76.68824101	     98.73586386	     87.88871054	      0.00000000	      0.00000000
      6.16500000	    -41.36188769	      0.74264761	     -1.11704186	     -0.41543484	      0.62304533	     -0.91532830	    104.33204062	    -28.59927849	      1.64342663	     97.39702294	      1.69989873	     30.58294335	      0.00000000	      0.00000000	    104.30887810	    -29.46794447	      2.19110742	     97.64567009	      1.70423844	     32.32336495	      0.00000000	      0.00000000	    -19.82281572	      3.23774524	      7.21091915	    -28.43220078	    -58.72467082	     42.74643240	    100.48528958	     87.81348355	      0.00000000	      0.00000000	      8.40759076	    -60.15807873	     74.54312010	     98.84707454	     87.90090235	      0.00000000	      0.00000000
      6.17000000	    -42.14325162	      1.93615708	     -1.82349857	     -0.41852671	      0.62183402	     -0.91416935	    106.06770870	    -27.37412556	      3.00321462	     97.09159421	      1.69456799	     30.19297721	      0.00000000	      0.00000000	    104.58394577	    -30.22789165	      1.10888411	     97.55204280	      1.70260434	     32.24089365	      0.00000000	      0.00000000	    -19.03338477	      1.70948419	      7.51933053	    -28.59455392	    -58.63590642	     42.61712875	    100.78390728	     87.82974046	      0.00000000	      0.00000000	      8.49259252	    -60.74755744	     74.55740741	     99.38618750	     87.89174820	      0.00000000	      0.00000000
      6.17500000	    -41.41632393	      0.89780035	     -1.18745514	     -0.41567474	      0.62307380	     -0.91514115	    104.50690709	    -28.44813849	      1.85878412	     97.37093087	      1.69944334	     30.40440294	      0.00000000	      0.00000000	    104.25172753	    -29.55457078	      2.02182197	     97.59751112	      1.70339791	     32.37576984	      0.00000000	      0.00000000	    -19.80947106	      3.02972676	      7.28339675	    -28.58957645	    -58.60509963	     42.52267257	    100.45062003	     87.83188093	      0.00000000	      0.00000000	      8.56440852	    -60.22852684	     74.65152555	     98.89132190	     87.88711869	      0.00000000	      0.00000000
      6.18000000	    -41.57667980	      0.99920439	     -1.46042439	     -0.41624374	      0.62292979	     -0.91446937	    104.70544939	    -28.04554957	      1.91760555	     97.28288089	      1.69790658	     30.46866800	      0.00000000	      0.00000000	    104.42796162	    -29.85827109	      2.01205357	     97.58333292	      1.70315045	     32.31200515	      0.00000000	      0.00000000	    -19.65644405	      2.81075309	      6.78590514	    -26.43477878	    -59.19051654	     44.78551651	    100.50437961	     87.82375731	      0.00000000	      0.00000000	      6.30319643	    -60.47159586	     72.32375256	     99.09261584	     87.88957807	      0.00000000	      0.00000000
      6.18500000	    -41.39892785	      0.80614170	     -1.20781530	     -0.41550143	      0.62310814	     -0.91510493	    104.40023713	    -28.43883892	      1.72868244	     97.37682744	      1.69954625	     30.52386903	      0.00000000	      0.00000000	    104.31736693	    -29.59412936	      2.11790884	     97.64682869	      1.70425866	     32.28646384	      0.00000000	      0.00000000	    -19.88729678	      3.13662059	      6.51264861	    -26.58455322	    -59.25357683	     44.53424555	    100.55683687	     87.83790022	      0.00000000	      0.00000000	      5.45995095	    -60.34553335	     71.31742840	     99.05504320	     87.93547889	      0.00000000	      0.00000000
      6.19000000	    -41.43919996	      0.93307378	     -1.44368888	     -0.41596195	      0.62318174	     -0.91456732	    104.48703771	    -28.10343093	      1.81671612	     97.27376407	      1.69774746	     30.51006327	      0.00000000	      0.00000000	    104.31700338	    -29.85923964	      2.05364643	     97.61787957	      1.70375341	     32.30392208	      0.00000000	      0.00000000	    -19.84348630	      2.91705213	      8.18061477	    -30.41924399	    -58.17690273	     40.62351999	    100.63960516	     87.84391048	      0.00000000	      0.00000000	     10.71646211	    -60.06575810	     76.84291539	     98.80394343	     87.89184344	      0.00000000	      0.00000000
      6.19500000	    -41.40715212	      0.79579702	     -1.23691588	     -0.41553986	      0.62322100	     -0.91493716	    104.37005777	    -28.39193999	      1.69011968	     97.34060750	      1.69891410	     30.55465871	      0.00000000	      0.00000000	    104.32629457	    -29.62268138	      2.15110669	     97.61969723	      1.70378513	     32.27497389	      0.00000000	      0.00000000	    -19.85730713	      3.12731811	      6.80797952	    -27.01073034	    -59.10306015	     44.15194300	    100.50128489	     87.84030236	      0.00000000	      0.00000000	      6.72861029	    -60.29293376	     72.75018710	     98.94032969	     87.90259657	      0.00000000	      0.00000000
      6.20000000	    -41.35873520	      0.79509657	     -1.28581867	     -0.41547554	      0.62337522	     -0.91477981	    104.29069573	    -28.32396526	      1.67367151	     97.32829764	      1.69869925	     30.63815083	      0.00000000	      0.00000000	    104.25228636	    -29.69947315	      2.13244084	     97.60143519	      1.70346640	     32.41330032	      0.00000000	      0.00000000	    -19.92459527	      3.09640709	      6.42235339	    -25.64428959	    -59.43604361	     45.57199034	    100.48456621	     87.77209059	      0.00000000	      0.00000000	      5.46921861	    -60.37564439	     71.46832797	     99.01413186	     87.93805487	      0.00000000	      0.00000000
      6.20500000	    -41.38947240	      0.76930431	     -1.23451268	     -0.41538768	      0.62337165	     -0.91487591	    104.30532900	    -28.38091928	      1.66164034	     97.33468554	      1.69881074	     30.56680938	      0.00000000	      0.00000000	    104.29386423	    -29.64935380	      2.14490907	     97.58837169	      1.70323840	     32.27236116	      0.00000000	      0.00000000	    -19.88874560	      3.13901738	      5.82390799	    -23.97171045	    -59.81280646	     47.30994508	    100.43556906	     87.81678975	      0.00000000	      0.00000000	      3.60878533	    -60.41967457	     69.56043702	     99.06333331	     87.90431649	      0.00000000	      0.00000000
      6.21000000	    -41.33779761	      0.68988453	     -1.15757028	     -0.41537240	      0.62339349	     -0.91509750	    104.21072224	    -28.49566861	      1.58528247	     97.34571566	      1.69900325	     30.62268327	      0.00000000	      0.00000000	    104.29383119	    -29.53449687	      2.23266246	     97.60291139	      1.70349216	     32.29775478	      0.00000000	      0.00000000	    -19.97518635	      3.29319216	      7.89482538	    -30.21117494	    -58.33962356	     40.85986222	    100.62158455	     87.84158943	      0.00000000	      0.00000000	     10.33739266	    -59.98788422	     76.49786587	     98.73493009	     87.88263661	      0.00000000	      0.00000000
      6.21500000	    -41.35390804	      0.63157211	     -1.17970006	     -0.41537835	      0.62340484	     -0.91493298	    104.17401745	    -28.46048650	      1.50891902	     97.34681764	      1.69902248	     30.64930457	      0.00000000	      0.00000000	    104.35075546	    -29.56180151	      2.31565568	     97.60022007	      1.70344519	     32.28892623	      0.00000000	      0.00000000	    -19.96334337	      3.33410876	      7.70875625	    -29.52749214	    -58.51409564	     41.56717201	    100.60195951	     87.84016158	      0.00000000	      0.00000000	      9.60093691	    -60.02911350	     75.72910475	     98.75197875	     87.89022910	      0.00000000	      0.00000000
      6.22000000	    -41.31147561	      0.64295340	     -1.16827226	     -0.41520292	      0.62354596	     -0.91496769	    104.12134256	    -28.48284874	      1.51607455	     97.34870630	      1.69905545	     30.65389886	      0.00000000	      0.00000000	    104.27706570	    -29.55520218	      2.28955356	     97.59572301	      1.70336670	     32.30092271	      0.00000000	      0.00000000	    -20.01732360	      3.32755787	      7.47929755	    -28.89635089	    -58.68339681	     42.20693834	    100.57374280	     87.83994244	      0.00000000	      0.00000000	      8.94315947	    -60.07248059	     75.05467266	     98.76712014	     87.88857704	      0.00000000	      0.00000000
      6.22500000	    -41.31651333	      0.66582117	     -1.12794901	     -0.41521100	      0.62354580	     -0.91507215	    104.15479819	    -28.52729392	      1.55482950	     97.35074009	      1.69909094	     30.64433336	      0.00000000	      0.00000000	    104.25514089	    -29.51275360	      2.24397947	     97.58360583	      1.70315522	     32.30133578	      0.00000000	      0.00000000	    -20.02668604	      3.33526650	      7.95658720	    -30.40632425	    -58.28246420	     40.64748961	    100.64980810	     87.84243535	      0.00000000	      0.00000000	     10.54568566	    -59.90099721	     76.69688726	     98.63102624	     87.87962916	      0.00000000	      0.00000000
      6.23000000	    -41.36755040	      0.70589576	     -1.10057471	     -0.41522744	      0.62344983	     -0.91514137	    104.24194312	    -28.54709908	      1.62266725	     97.35096055	      1.69909479	     30.65827233	      0.00000000	      0.00000000	    104.27639208	    -29.48088585	      2.19566582	     97.58155459	      1.70311942	     32.30424139	      0.00000000	      0.00000000	    -19.96058036	      3.30037403	      7.89085155	    -30.30837781	    -58.27660605	     40.75295021	    100.60210245	     87.83727176	      0.00000000	      0.00000000	     10.44836120	    -59.93049115	     76.63212999	     98.67629535	     87.87556774	      0.00000000	      0.00000000
      6.23500000	    -41.40389687	      0.66151801	     -1.02340133	     -0.41524437	      0.62340891	     -0.91523020	    104.25588303	    -28.63317177	      1.58716763	     97.36423927	      1.69932655	     30.66335088	      0.00000000	      0.00000000	    104.33047474	    -29.38418816	      2.22843093	     97.55700077	      1.70269087	     32.28499748	      0.00000000	      0.00000000	    -19.92886082	      3.37006581	      7.56830188	    -29.59488908	    -58.49614262	     41.50576462	    100.59620421	     87.84091065	      0.00000000	      0.00000000	      9.58655543	    -60.02369070	     75.74290731	     98.73724530	     87.88917976	      0.00000000	      0.00000000
